<svg xmlns="http://www.w3.org/2000/svg" xmlns:xlink="http://www.w3.org/1999/xlink" width="1162.48" height="375.325" viewBox="0 0 1162.48 375.325">
  <defs>
    <clipPath id="clip-path">
      <path id="Path_83" data-name="Path 83" d="M1546.41,706.62c-2.457,6.178-4.96,12.394-7.477,18.59-2.108,5.189-9.277,9.062-18.045,9.8-16.182,1.353-18.108,1.73-25,3.05-6.166,1.212.736,3.316,22.526,4.209,6.9.284,11.745,4.248,10.046,8.3-20.263,48.326-39.951,91.012-47.519,101.175-280.659-13.614-675.073-14.731-959.491,0-3.854-5.185-10.876-18.853-19.541-37.426-3.369-7.221,3.853-14.82,16-16.417,10.865-1.429,16.679-3.364,13.432-5.568-3.615-2.4-10.463-4.9-19.294-7.738-17.506-5.631-30.315-15.432-35.218-27.034-7.754-18.349-15.67-37.711-23.086-56.577-2.816-7.166,5.866-14.1,18.056-14.429,38.969-1.043,66.386-3.642,58.764-5.593-4.129-1.057-30.117-5.113-65.073-8.7-14.391-1.477-25.824-8.1-28.941-16.712-5.649-15.6-10.386-29.684-13.7-41.066,20.819-7.923,244.976-48.834,578.32-48.834,320.852,0,557.558,40.911,578.378,48.834-3.254,11.162-9.277,28.6-15.565,45.949-4.792,13.219-22.439,23.316-44.541,25.58-31.278,3.2-63.2,4.855-72.931,8.087-9.805,3.237,47.143,2.858,88.155,3.349C1542.538,697.538,1548.247,702,1546.41,706.62Z" fill="none"/>
    </clipPath>
    <linearGradient id="linear-gradient" x1="0.5" y1="0.01" x2="0.5" y2="0.996" gradientUnits="objectBoundingBox">
      <stop offset="0" stop-color="#bd6e15"/>
      <stop offset="1" stop-color="#914210"/>
    </linearGradient>
  </defs>
  <g id="Group_137" data-name="Group 137" transform="translate(-419.955 -478.158)">
    <g id="Group_40" data-name="Group 40">
      <path id="Path_38" data-name="Path 38" d="M1440.76,601.557C1384.92,581.341,1107.9,483.092,1003,479.831c115.091,11.738,367.638,101.291,420.662,120.5,6.273,2.28,5.474,5.724-1.863,7.684a39.55,39.55,0,0,1-5.971,1.023,43.187,43.187,0,0,0,11.656,1.519,46.229,46.229,0,0,0,11.428-1.309C1446.228,607.277,1447.028,603.836,1440.76,601.557Z" fill="#b06e0e" opacity="0.5" style="mix-blend-mode: multiply;isolation: isolate"/>
      <g id="Group_16" data-name="Group 16">
        <g id="Group_15" data-name="Group 15">
          <path id="Path_39" data-name="Path 39" d="M1427.481,610.554a41.652,41.652,0,0,1-13.273-1.889c-128.53-46.533-355.274-119.681-416.959-118.04-37.088,1.017-237.4,60.477-409.583,117.363-6.662,2.193-17.73,2.292-24.769.231s-7.337-5.518-.715-7.707c60-19.83,362.982-118.843,431.976-120.743,97.179-2.549,389.1,100.977,446.6,121.788,6.268,2.279,5.468,5.72-1.851,7.688a46.229,46.229,0,0,1-11.428,1.309Z" fill="#b06e0e"/>
          <path id="Path_40" data-name="Path 40" d="M1427.481,612.118a49.049,49.049,0,0,1-15.673-2.261c-74.249-26.881-161.452-55.663-233.274-76.995-116.183-34.509-162.618-41.177-181.051-40.675-35.9.985-239.5,61.517-407.538,117.036-7.953,2.618-20.763,2.74-29.157.284-4.371-1.288-6.948-3.143-7.073-5.1s2.074-3.769,6.193-5.13c60.137-19.876,363.719-119.138,434.01-121.073,99.213-2.6,391.624,101.307,449.247,122.161,3.857,1.4,5.806,3.23,5.48,5.146-.337,1.977-3.16,3.819-7.754,5.054A54.322,54.322,0,0,1,1427.481,612.118ZM999.186,489.035c65.713,0,289.966,72.294,417.428,118.442a34.322,34.322,0,0,0,10.867,1.512,38.453,38.453,0,0,0,9.462-1.07c2.606-.7,4.148-1.639,4.32-2.631.148-.9-.886-1.805-2.92-2.544-25-9.048-113.926-40.818-208.168-69.572-114.578-34.955-196.1-52.885-235.789-51.842-19.581.539-73.216,10.237-217.453,53.366-93.459,27.944-186.256,58.387-212.471,67.049-2.217.735-3.4,1.65-3.348,2.579.063.962,1.446,1.89,3.891,2.61,5.691,1.665,15.033,1.584,20.387-.181,87.557-28.927,180.731-57.974,255.632-79.689,58.611-16.991,133.244-37.378,155.985-38C997.712,489.042,998.443,489.035,999.186,489.035Z" fill="#8c5700"/>
        </g>
        <path id="Path_41" data-name="Path 41" d="M570.525,606.763a36.457,36.457,0,0,1-7.771,1.4.685.685,0,0,1,.143.058c7.039,2.061,18.107,1.962,24.769-.231C759.849,551.1,960.161,491.642,997.249,490.625c.845-.018,1.9.021,2.811.029a142.494,142.494,0,0,0-19.924-1.261C943.06,490.421,742.771,549.873,570.525,606.763Z" fill="#b06e0e" opacity="0.5" style="mix-blend-mode: multiply;isolation: isolate"/>
        <path id="Path_42" data-name="Path 42" d="M1393.41,597.455a9.95,9.95,0,0,1-3.371-.5c-2.668-1.028-267.78-102.29-393.007-111.963-37.6-2.807-253.741,63.921-389.808,109.545a11.892,11.892,0,0,1-6.148.052c-1.749-.525-1.869-1.4-.166-1.952,34.962-11.742,343.5-114.644,398.207-110.32C1127.128,492.209,1385.805,591,1396.77,595.2c1.543.584,1.24,1.452-.577,1.941a11.613,11.613,0,0,1-2.783.314Z" fill="#c08b3e"/>
      </g>
      <g id="Group_17" data-name="Group 17" opacity="0.49" style="mix-blend-mode: multiply;isolation: isolate">
        <path id="Path_43" data-name="Path 43" d="M631.69,578.732c-1.68,0-3.257-.336-3.8-.857-.709-.655.428-1.365,2.531-1.582,1.183-.122,29.083-2.969,53.686-.84,2.131.184,3.383.873,2.783,1.54-.583.663-2.806,1.051-4.937.87-22.266-1.929-48.727.776-48.99.8a12.35,12.35,0,0,1-1.268.068Z" fill="#8c5700"/>
      </g>
      <g id="Group_18" data-name="Group 18" opacity="0.49" style="mix-blend-mode: multiply;isolation: isolate">
        <path id="Path_44" data-name="Path 44" d="M660.813,569.441a6.614,6.614,0,0,1-3.8-.857c-.7-.655.44-1.363,2.531-1.582,1.188-.122,29.111-2.962,53.7-.839,2.143.182,3.389.876,2.794,1.537s-2.811,1.055-4.948.872c-22.249-1.923-48.738.774-48.995.8-.428.041-.851.066-1.274.066Z" fill="#8c5700"/>
      </g>
      <g id="Group_19" data-name="Group 19" opacity="0.49" style="mix-blend-mode: multiply;isolation: isolate">
        <path id="Path_45" data-name="Path 45" d="M686.5,560.586a6.62,6.62,0,0,1-3.806-.853c-.7-.655.435-1.363,2.537-1.58,1.172-.122,29.06-2.968,53.635-.839,2.137.182,3.388.874,2.788,1.539s-2.822,1.053-4.948.869c-22.163-1.92-48.675.775-48.932.8-.423.039-.851.06-1.274.06Z" fill="#8c5700"/>
      </g>
      <g id="Group_20" data-name="Group 20" opacity="0.49" style="mix-blend-mode: multiply;isolation: isolate">
        <path id="Path_46" data-name="Path 46" d="M721.167,551.953a6.656,6.656,0,0,1-3.811-.855c-.7-.653.434-1.363,2.537-1.58,1.171-.124,29.066-2.97,53.646-.842,2.137.188,3.388.877,2.788,1.542s-2.811,1.053-4.936.87c-22.25-1.927-48.681.774-48.961.8a11.713,11.713,0,0,1-1.263.064Z" fill="#8c5700"/>
      </g>
      <g id="Group_21" data-name="Group 21" opacity="0.49" style="mix-blend-mode: multiply;isolation: isolate">
        <path id="Path_47" data-name="Path 47" d="M750.307,542.664c-1.68,0-3.251-.329-3.8-.857-.715-.653.423-1.363,2.525-1.58,1.171-.122,29.054-2.97,53.652-.839,2.137.186,3.383.874,2.794,1.541s-2.828,1.051-4.948.868c-22.249-1.929-48.687.774-48.949.8-.423.041-.846.064-1.269.064Z" fill="#8c5700"/>
      </g>
      <g id="Group_22" data-name="Group 22" opacity="0.49" style="mix-blend-mode: multiply;isolation: isolate">
        <path id="Path_48" data-name="Path 48" d="M777.327,533.81a6.68,6.68,0,0,1-3.805-.848c-.714-.653.406-1.365,2.5-1.588,1.154-.12,28.345-2.968,52.337-.835,2.132.19,3.371.882,2.754,1.545-.6.663-2.822,1.047-4.953.861-21.6-1.921-47.276.768-47.533.795a12.345,12.345,0,0,1-1.3.07Z" fill="#8c5700"/>
      </g>
      <g id="Group_23" data-name="Group 23" opacity="0.49" style="mix-blend-mode: multiply;isolation: isolate">
        <path id="Path_49" data-name="Path 49" d="M811.2,524.728c-1.731,0-3.32-.351-3.845-.892-.646-.663.565-1.357,2.691-1.557,1.165-.108,28.746-2.625,52.635-.36,2.119.2,3.308.9,2.668,1.561s-2.885,1.037-5.005.833c-21.6-2.047-47.727.338-48,.363-.382.035-.777.052-1.148.052Z" fill="#8c5700"/>
      </g>
      <g id="Group_24" data-name="Group 24" opacity="0.49" style="mix-blend-mode: multiply;isolation: isolate">
        <path id="Path_50" data-name="Path 50" d="M840.527,515.984c-1.726,0-3.326-.349-3.845-.894-.629-.659.582-1.355,2.7-1.555,1.154-.106,28.74-2.621,52.635-.356,2.137.2,3.325.9,2.674,1.56-.634.66-2.885,1.032-4.994.83-21.558-2.037-47.761.341-48.024.365-.377.035-.765.05-1.148.05Z" fill="#8c5700"/>
      </g>
      <g id="Group_25" data-name="Group 25" opacity="0.49" style="mix-blend-mode: multiply;isolation: isolate">
        <path id="Path_51" data-name="Path 51" d="M866.4,507.632c-1.725,0-3.325-.349-3.845-.894-.634-.659.566-1.355,2.691-1.553,1.171-.109,28.763-2.629,52.692-.361,2.12.2,3.308.9,2.663,1.561s-2.886,1.035-5.011.832c-21.621-2.049-47.773.339-48.035.364-.389.037-.772.051-1.155.051Z" fill="#8c5700"/>
      </g>
      <g id="Group_26" data-name="Group 26" opacity="0.49" style="mix-blend-mode: multiply;isolation: isolate">
        <path id="Path_52" data-name="Path 52" d="M903.452,500.54c-1.731,0-3.325-.347-3.839-.892-.635-.663.565-1.357,2.679-1.557,1.172-.105,28.717-2.619,52.635-.357,2.12.2,3.32.9,2.686,1.559s-2.892,1.033-5.017.834c-21.564-2.04-47.733.339-48,.362-.383.035-.766.051-1.143.051Z" fill="#8c5700"/>
      </g>
      <g id="Group_27" data-name="Group 27" opacity="0.49" style="mix-blend-mode: multiply;isolation: isolate">
        <path id="Path_53" data-name="Path 53" d="M935.923,492.005c-1.725,0-3.314-.355-3.839-.892-.635-.661.565-1.361,2.691-1.557,1.165-.11,28.746-2.635,52.635-.364,2.125.2,3.319.9,2.679,1.559s-2.9,1.035-5.022.831c-21.529-2.041-47.721.343-47.99.369-.377.035-.759.054-1.154.054Z" fill="#8c5700"/>
      </g>
      <g id="Group_28" data-name="Group 28" opacity="0.49" style="mix-blend-mode: multiply;isolation: isolate">
        <path id="Path_54" data-name="Path 54" d="M1378.069,580.4a11.485,11.485,0,0,1-1.3-.068c-.257-.027-26.5-2.759-48.43-.816-2.125.192-4.348-.2-4.965-.859-.6-.665.634-1.357,2.771-1.545,24.392-2.162,52.069.731,53.218.855,2.1.223,3.217.933,2.5,1.586a6.665,6.665,0,0,1-3.8.847Z" fill="#8c5700"/>
      </g>
      <g id="Group_29" data-name="Group 29" opacity="0.49" style="mix-blend-mode: multiply;isolation: isolate">
        <path id="Path_55" data-name="Path 55" d="M1349.209,570.953a11.69,11.69,0,0,1-1.291-.069c-.258-.028-26.455-2.754-48.4-.8-2.125.192-4.348-.194-4.965-.857s.629-1.359,2.754-1.545c24.4-2.168,52.041.719,53.2.843,2.1.223,3.222.933,2.5,1.588a6.7,6.7,0,0,1-3.805.845Z" fill="#8c5700"/>
      </g>
      <g id="Group_30" data-name="Group 30" opacity="0.49" style="mix-blend-mode: multiply;isolation: isolate">
        <path id="Path_56" data-name="Path 56" d="M1323.811,561.955a12.716,12.716,0,0,1-1.308-.066c-.257-.029-26.478-2.764-48.39-.812-2.12.192-4.354-.194-4.965-.859s.629-1.353,2.76-1.543c24.375-2.177,52.035.721,53.206.847,2.091.225,3.211.935,2.491,1.59a6.689,6.689,0,0,1-3.794.843Z" fill="#8c5700"/>
      </g>
      <g id="Group_31" data-name="Group 31" opacity="0.49" style="mix-blend-mode: multiply;isolation: isolate">
        <path id="Path_57" data-name="Path 57" d="M1294.34,552.746a12.605,12.605,0,0,1-1.3-.07c-.263-.025-26.5-2.759-48.435-.81-2.115.19-4.343-.194-4.954-.861s.617-1.355,2.754-1.543c24.375-2.17,52.069.725,53.235.847,2.091.225,3.211.934,2.5,1.59a6.748,6.748,0,0,1-3.805.847Z" fill="#8c5700"/>
      </g>
      <g id="Group_32" data-name="Group 32" opacity="0.49" style="mix-blend-mode: multiply;isolation: isolate">
        <path id="Path_58" data-name="Path 58" d="M1266.188,543.736a12.079,12.079,0,0,1-1.3-.066c-.263-.029-26.506-2.766-48.4-.81-2.119.192-4.348-.194-4.953-.861s.617-1.355,2.754-1.545c24.346-2.174,52.034.725,53.2.851,2.091.225,3.211.935,2.5,1.586a6.727,6.727,0,0,1-3.806.845Z" fill="#8c5700"/>
      </g>
      <g id="Group_33" data-name="Group 33" opacity="0.49" style="mix-blend-mode: multiply;isolation: isolate">
        <path id="Path_59" data-name="Path 59" d="M1233.854,534.742a12.17,12.17,0,0,1-1.337-.074c-.251-.025-25.683-2.757-46.955-.818-2.114.2-4.354-.184-4.977-.849s.6-1.357,2.72-1.551c23.8-2.168,50.749.735,51.881.861,2.091.231,3.188.942,2.451,1.6a6.777,6.777,0,0,1-3.783.835Z" fill="#8c5700"/>
      </g>
      <g id="Group_34" data-name="Group 34" opacity="0.49" style="mix-blend-mode: multiply;isolation: isolate">
        <path id="Path_60" data-name="Path 60" d="M1205.149,525.071c-.4,0-.783-.021-1.166-.056-.269-.025-26.18-2.441-47.424-.368-2.126.205-4.371-.161-5.028-.82s.514-1.359,2.634-1.567c23.666-2.3,51,.254,52.161.363,2.125.2,3.308.9,2.656,1.562-.519.537-2.114.886-3.833.886Z" fill="#8c5700"/>
      </g>
      <g id="Group_35" data-name="Group 35" opacity="0.49" style="mix-blend-mode: multiply;isolation: isolate">
        <path id="Path_61" data-name="Path 61" d="M1171.3,516.626c-.4,0-.789-.019-1.189-.054-.245-.026-26.163-2.447-47.464-.378-2.114.2-4.365-.165-5.028-.822s.526-1.362,2.64-1.567c23.706-2.3,51.058.264,52.212.374,2.12.2,3.314.9,2.663,1.563-.532.537-2.126.884-3.834.884Z" fill="#8c5700"/>
      </g>
      <g id="Group_36" data-name="Group 36" opacity="0.49" style="mix-blend-mode: multiply;isolation: isolate">
        <path id="Path_62" data-name="Path 62" d="M1145.64,508.132c-.383,0-.771-.019-1.166-.056-.262-.024-26.168-2.443-47.475-.374-2.125.211-4.377-.161-5.028-.821s.52-1.361,2.64-1.564c23.729-2.309,51.063.258,52.218.37,2.114.2,3.3.9,2.656,1.561-.525.537-2.125.884-3.845.884Z" fill="#8c5700"/>
      </g>
      <g id="Group_37" data-name="Group 37" opacity="0.49" style="mix-blend-mode: multiply;isolation: isolate">
        <path id="Path_63" data-name="Path 63" d="M1108.981,500.918c-.394,0-.789-.018-1.183-.055-.257-.025-26.157-2.443-47.43-.37-2.119.208-4.371-.161-5.028-.818s.52-1.365,2.629-1.565c23.7-2.309,51.029.252,52.189.363,2.12.2,3.314.9,2.662,1.559-.537.539-2.125.886-3.839.886Z" fill="#8c5700"/>
      </g>
      <g id="Group_38" data-name="Group 38" opacity="0.49" style="mix-blend-mode: multiply;isolation: isolate">
        <path id="Path_64" data-name="Path 64" d="M1076.847,492.24c-.4,0-.783-.02-1.177-.057-.257-.025-26.192-2.441-47.493-.372-2.114.2-4.365-.163-5.028-.824s.526-1.359,2.646-1.565c23.689-2.3,51.069.26,52.229.371,2.114.2,3.308.9,2.657,1.561-.526.537-2.12.886-3.834.886Z" fill="#8c5700"/>
      </g>
      <g id="Group_39" data-name="Group 39" opacity="0.49" style="mix-blend-mode: multiply;isolation: isolate">
        <path id="Path_65" data-name="Path 65" d="M971.143,484.533c-1.737,0-3.326-.353-3.857-.894-.634-.661.588-1.359,2.7-1.557,1.171-.108,28.734-2.633,52.658-.362,2.125.2,3.319.9,2.685,1.556-.651.664-2.891,1.036-5.011.834-21.586-2.045-47.767.345-48.024.367-.383.036-.765.056-1.148.056Z" fill="#8c5700"/>
      </g>
    </g>
    <g id="Group_49" data-name="Group 49">
      <g id="Group_41" data-name="Group 41">
        <path id="Path_66" data-name="Path 66" d="M436.548,655.544c5.153,20.2,35.225,35.554,47.948,36.95s70.556,0,70.556-10.472S436.548,655.544,436.548,655.544Z" fill="#612601"/>
        <path id="Path_67" data-name="Path 67" d="M496.9,694.69c-5.594,0-10.185-.178-12.924-.478-14.306-1.571-45.023-17.75-50.29-38.4a1.426,1.426,0,0,1,.884-1.541,4.27,4.27,0,0,1,2.607-.429c28.328,3.828,120.76,17.166,120.76,28.18,0,2.09-1.629,3.972-4.845,5.591C542.6,692.9,514.7,694.69,496.9,694.69Zm-56.7-36.857c6.718,18.234,33.832,31.737,44.812,32.943,10.145,1.115,52.294.242,64.377-5.846,1.864-.937,2.767-1.888,2.767-2.908C552.159,676.561,494.861,665.387,440.2,657.833Z" fill="#612601"/>
      </g>
      <g id="Group_42" data-name="Group 42">
        <path id="Path_68" data-name="Path 68" d="M1503.5,701.1c37.4-6.516,55.841-32.829,55.841-32.829s-110.975,12.117-121.384,25.382S1503.5,701.1,1503.5,701.1Z" fill="#612601"/>
        <path id="Path_69" data-name="Path 69" d="M1470.7,704.18c-14.972,0-30.136-1.074-34.919-5.056-1.463-1.22-2.734-3.289-.441-6.214,10.736-13.679,111.976-25.1,123.486-26.354a4.13,4.13,0,0,1,2.773.628,1.231,1.231,0,0,1,.407,1.772c-.78,1.1-19.422,27.155-57.7,33.826a4.292,4.292,0,0,1-.441.055C1499.111,703.2,1484.991,704.18,1470.7,704.18Zm32.8-3.075h0Zm50.721-30.478c-33.745,3.92-106.091,14.139-113.653,23.776-1.163,1.48-.667,2.206-.107,2.673,5.681,4.724,41.217,3.934,62.451,2.314A89.935,89.935,0,0,0,1554.22,670.627Z" fill="#612601"/>
      </g>
      <g id="Group_43" data-name="Group 43">
        <path id="Path_70" data-name="Path 70" d="M1532.375,731.795c-13.842,9.1-34.219,14.222-34.219,14.222s-23.961-.7-15.865-10.006S1532.375,731.795,1532.375,731.795Z" fill="#612601"/>
        <path id="Path_71" data-name="Path 71" d="M1498.156,747.762c-.045,0-.091,0-.141,0-1.48-.041-14.6-.552-18.937-5.123-2.01-2.124-1.79-4.623.655-7.435,8.845-10.178,48.694-5.665,53.213-5.116a2.824,2.824,0,0,1,2.179,1.169,1.284,1.284,0,0,1-.621,1.721c-14.107,9.279-34.383,14.44-35.236,14.655A4.652,4.652,0,0,1,1498.156,747.762Zm10.657-15.626c-10.521,0-20.806,1.063-23.963,4.687-2.208,2.54-1.118,3.7-.757,4.073,2.186,2.315,10.127,3.174,13.555,3.351,3.078-.828,17.254-4.826,28.752-11.3C1521.425,732.511,1515.076,732.136,1508.813,732.136Z" fill="#612601"/>
      </g>
      <g id="Group_44" data-name="Group 44">
        <path id="Path_72" data-name="Path 72" d="M478.654,761.153C495.8,794.072,512.545,804.2,521.22,804.2s33.253-4.538,26.892-15.01S478.654,761.153,478.654,761.153Z" fill="#612601"/>
        <path id="Path_73" data-name="Path 73" d="M521.219,805.94c-5.224,0-23.932-3.19-45.323-44.263-.342-.662-.011-1.381.85-1.834a4.432,4.432,0,0,1,3.12-.277c6.569,1.831,64.375,18.18,70.96,29.02,2.082,3.426,1.463,6.722-1.79,9.531C542.637,803.646,527.762,805.94,521.219,805.94Zm-37.755-41.478c16.46,29.926,31.768,37.988,37.755,37.988,5.653,0,18.2-2.117,23.076-6.334,2.183-1.885,2.544-3.954,1.1-6.33C541.011,782.566,503.519,770.345,483.464,764.462Z" fill="#612601"/>
      </g>
      <g id="Group_47" data-name="Group 47">
        <g id="Group_46" data-name="Group 46" clip-path="url(#clip-path)">
          <path id="Path_74" data-name="Path 74" d="M1001.18,565.636c-333.349,0-557.513,40.9-578.372,48.85,18.963,64.707,83.437,216.826,98.607,237.26,284.446-14.758,678.877-13.623,959.53,0,15.17-20.434,79.644-172.553,98.608-237.26C1558.693,606.539,1321.995,565.636,1001.18,565.636Z" fill="url(#linear-gradient)"/>
          <g id="Group_45" data-name="Group 45">
            <path id="Path_75" data-name="Path 75" d="M415.318,736.549c50.672-5.068,228.667,47.571,227.574,115.2l77.559,11.783s-5.606-194.149-245.7-281.809C355.882,581.727,383.152,704.508,415.318,736.549Z" fill="#9a4b11" opacity="0.2" style="mix-blend-mode: multiply;isolation: isolate"/>
            <path id="Path_76" data-name="Path 76" d="M674.185,553.567c-60.145,108.826,75.7,142.247,327.008,287.543,66.25,22.426,85.745,22.426,85.745,22.426S896.98,751.835,873.487,690.4s189.33-136.833,189.33-136.833Z" fill="#9a4b11" opacity="0.2" style="mix-blend-mode: multiply;isolation: isolate"/>
            <path id="Path_77" data-name="Path 77" d="M1131.715,538.311c-186.337,108.235,34.232,296.908,97.443,333.179,58.132,12.525,82.99,12.525,82.99,12.525s-129.659-85.928-109.418-134.983,274.935,159.184,274.935,159.184l101.9-135.9S1185.959,711.7,1167.453,643.5s108.579-76.136,108.579-76.136Z" fill="#9a4b11" opacity="0.2" style="mix-blend-mode: multiply;isolation: isolate"/>
            <path id="Path_78" data-name="Path 78" d="M1419.062,581.727c-129.544,19.312-129.544,58.408,25.446,86.333s175.809,58.746,175.809,55.2-13.879-128.949-13.879-128.949Z" fill="#9a4b11" opacity="0.2" style="mix-blend-mode: multiply;isolation: isolate"/>
          </g>
          <path id="Path_79" data-name="Path 79" d="M1453.761,827.233c-20.819,2.793-91.084-6.539-333.112-10.925s-518.175,16.51-552.874,16.51-60.992-8.229-72.522-33.021l0,.006c11.654,25.855,21.381,45.491,26.178,51.95,284.445-14.757,678.876-13.622,959.529,0,5.947-8.01,19.479-36.289,34.867-71.573C1511.634,784.621,1473.423,824.6,1453.761,827.233Z" fill="#662006" opacity="0.4" style="mix-blend-mode: multiply;isolation: isolate"/>
          <path id="Path_80" data-name="Path 80" d="M432.062,641.531c43.181,30.718,157.3,32.114,176.581,38.63-53.591,4.654-151.906,1.4-166.557-3.724S432.062,641.531,432.062,641.531Z" fill="#612601" opacity="0.6"/>
          <path id="Path_81" data-name="Path 81" d="M1543.979,717.86c-32.386,13.962-77.109,17.22-89.447,17.686s35.856,8.018,72.1,5.817C1543.593,733.557,1543.979,717.86,1543.979,717.86Z" fill="#612601" opacity="0.6"/>
          <path id="Path_82" data-name="Path 82" d="M1458.388,691.8c90.988-7.912,115.336-67.545,118.2-67.748S1614.148,701.57,1458.388,691.8Z" fill="#612601" opacity="0.6"/>
        </g>
      </g>
      <path id="Path_84" data-name="Path 84" d="M482.183,767.66c-1.542-2.793,1.542-9.309-7.711-36.769-4.565-13.546-11.566-24.667,7.711-33.044s126.46-17.686,126.46-17.686l-129.989,6.152s-30.538.494-24.912,14.665S482.183,767.66,482.183,767.66Z" fill="#fab43c"/>
      <path id="Path_85" data-name="Path 85" d="M1492.8,741.189c8.1,2.792,18.217,5.759,21.4,10.646s-.345,32.814-.345,32.814,14.389-32.795,14.885-36.12S1526.34,741.014,1492.8,741.189Z" fill="#fab43c"/>
      <path id="Path_86" data-name="Path 86" d="M1443.737,695.985c5.4,4.887,40.7,7.214,62.761,10.239s32.816,1.391,34.378,14.193c4.709-11.726,8.079-15.343,3.856-19.538s-11.929-3.483-28.13-3.6S1443.737,695.985,1443.737,695.985Z" fill="#fab43c"/>
      <path id="Path_87" data-name="Path 87" d="M422.848,614.478c2.269,7.793,5.218,16.874,8.656,26.819l.558.234c-2.808-6.826,5.413-17.221,27.382-24.667s137.632-28.856,352-37.234,357.788-4.654,481.163,11.17,238.228,20.478,254.055,26.064c11.021,3.888,22.641,8.5,28.693,10.953,1.646-4.991,3.089-9.547,4.2-13.339-20.82-7.923-257.526-48.834-578.378-48.834C667.824,565.644,443.667,606.555,422.848,614.478Z" fill="#fab43c"/>
      <g id="Group_48" data-name="Group 48">
        <path id="Path_88" data-name="Path 88" d="M1480.942,853.483c-.079,0-.153,0-.231-.006-291.555-14.14-685.917-14.14-959.012,0a3.489,3.489,0,0,1-2.886-1.026c-4.688-6.307-13.292-23.964-19.688-37.665-1.855-3.978-.9-8.293,2.629-11.835,3.484-3.5,9-5.9,15.537-6.76,10.852-1.428,12.085-2.785,12.1-2.8-3.82-2.308-11.586-4.974-18.7-7.261-18.214-5.86-31.577-16.117-36.663-28.144-7.928-18.762-15.914-38.335-23.1-56.607-1.528-3.879-.139-7.935,3.809-11.126,4.007-3.239,10.166-5.223,16.9-5.447,31.643-1.057,47.42-1.988,54.926-2.724-4.626-.7-10.979-1.374-17.945-2.12-13.278-1.415-29.8-3.181-44.046-6.051-16.932-3.416-27.889-9.8-30.851-17.995C427.818,639.61,423.2,625.766,420,614.783c-.2-.7.313-1.4,1.307-1.779,22.768-8.669,246.447-49.1,579.862-49.1,326.627,0,560.784,41.819,579.918,49.1.994.378,1.508,1.08,1.3,1.779-2.908,9.978-8.443,26.32-15.588,46.016-5.054,13.959-23.454,24.53-46.875,26.93-9.906,1.012-19.682,1.858-29.142,2.672-15.56,1.34-29.436,2.537-37.636,3.995,11.476.754,36.9.938,56.533,1.085,8.539.061,17.09.122,25.036.218,4.637.058,8.918,1.356,11.747,3.569s3.835,5.041,2.756,7.758v0c-2.457,6.176-4.964,12.4-7.483,18.595-2.4,5.911-10.425,10.271-20.456,11.109-12.967,1.084-16.559,1.517-21.111,2.342,3.4.5,9.195,1.071,18.44,1.449,4.174.17,7.975,1.438,10.425,3.48,2.429,2.022,3.243,4.568,2.226,6.988-21.823,52.04-40.539,91.868-47.683,101.461A3.353,3.353,0,0,1,1480.942,853.483Zm-486.667-14.1c168.534,0,339.359,3.5,484.826,10.516,7.557-11.143,25.584-49.752,46.559-99.763a3.434,3.434,0,0,0-1.305-4.08,10.4,10.4,0,0,0-6.139-2.045c-26.606-1.091-27.108-3.545-27.351-4.725-.152-.743.181-2.114,4.134-2.887,7.02-1.347,9.115-1.749,25.494-3.119,7.664-.641,13.8-3.972,15.632-8.485,2.519-6.19,5.016-12.405,7.472-18.578h0c.672-1.687.045-3.44-1.705-4.813a12.3,12.3,0,0,0-7.286-2.213c-7.935-.1-16.469-.157-25-.221-60.017-.437-65.913-1.047-67.009-3.692-.2-.5-.367-1.759,2.519-2.714,7.122-2.365,23.771-3.8,44.848-5.617,9.421-.812,19.162-1.65,28.989-2.659,21.083-2.158,37.648-11.672,42.2-24.23,6.839-18.868,12.2-34.637,15.18-44.656-28.125-8.549-257.318-48.01-575.168-48.01-319.917,0-545.389,38.632-575.118,48,3.171,10.741,7.65,24.117,13.323,39.787,3.219,8.894,16.477,13.3,27.032,15.425,13.845,2.792,30.133,4.531,43.222,5.928,11.7,1.248,20.944,2.237,25.343,3.593,2.757.849,2.539,2.148,2.407,2.526-.684,1.957-1.223,3.5-65.417,5.645-5.021.167-9.607,1.647-12.586,4.053-2.92,2.359-3.948,5.363-2.818,8.233,7.175,18.25,15.153,37.8,23.073,56.545,4.685,11.083,17,20.532,33.779,25.928,7.932,2.553,15.856,5.3,20.072,8.1,2.039,1.384,1.748,2.686,1.392,3.341-.8,1.482-3.38,3.4-16.35,5.106-4.962.651-9.155,2.481-11.809,5.147-2.709,2.724-3.445,6.037-2.019,9.092,8.457,18.125,14.85,30.512,18.594,36.051C659.586,842.885,825.8,839.381,994.275,839.381Zm501.718-99.466Zm50.417-33.294h0Z" fill="#612601"/>
      </g>
    </g>
  </g>
</svg>
